<svg width="19" height="23" viewBox="0 0 19 23" fill="none" xmlns="http://www.w3.org/2000/svg">
<path d="M0.286133 2.72721C0.286133 1.40682 1.35775 0.335205 2.67814 0.335205H11.6803C12.3145 0.335205 12.9227 0.586707 13.3711 1.0364L17.3541 5.01943C17.8038 5.46776 18.0553 6.07601 18.0553 6.71024V19.813C18.0553 20.4474 17.8033 21.0558 17.3547 21.5044C16.9061 21.9529 16.2977 22.205 15.6633 22.205H2.67814C2.04374 22.205 1.43532 21.9529 0.986735 21.5044C0.538147 21.0558 0.286133 20.4474 0.286133 19.813V2.72721ZM2.67814 2.38549C2.58751 2.38549 2.50059 2.4215 2.43651 2.48558C2.37242 2.54966 2.33642 2.63658 2.33642 2.72721V19.813C2.33642 20.0016 2.48951 20.1547 2.67814 20.1547H15.6633C15.7539 20.1547 15.8408 20.1187 15.9049 20.0546C15.969 19.9905 16.005 19.9036 16.005 19.813V8.53636H12.2462C11.6118 8.53636 11.0033 8.28435 10.5548 7.83576C10.1062 7.38717 9.85415 6.77876 9.85415 6.14436V2.38549H2.67814ZM11.9044 2.47024V6.14436C11.9044 6.33298 12.0575 6.48607 12.2462 6.48607H15.9203L15.9052 6.4683L11.9222 2.48527L11.9044 2.47024Z" fill="#2E2694"/>
</svg>
