<svg width="97" height="96" viewBox="0 0 97 96" fill="none" xmlns="http://www.w3.org/2000/svg">
<circle cx="48.5" cy="48" r="48" fill="#2E2694"/>
<path d="M66.9377 50.6529L59.4172 48.5038C56.0305 47.549 52.9455 45.7411 50.4574 43.253C47.9693 40.7649 46.1614 37.6799 45.2066 34.2932L43.0575 26.7727C42.9494 26.5096 42.7655 26.2845 42.5292 26.1262C42.293 25.9678 42.0149 25.8832 41.7305 25.8832C41.446 25.8832 41.168 25.9678 40.9317 26.1262C40.6954 26.2845 40.5116 26.5096 40.4035 26.7727L38.2544 34.2932C37.2996 37.6799 35.4916 40.7649 33.0035 43.253C30.5154 45.7411 27.4305 47.549 24.0438 48.5038L16.5233 50.6529C16.2345 50.7349 15.9804 50.9088 15.7994 51.1483C15.6184 51.3878 15.5205 51.6798 15.5205 51.9799C15.5205 52.2801 15.6184 52.5721 15.7994 52.8116C15.9804 53.051 16.2345 53.225 16.5233 53.3069L24.0438 55.456C27.4305 56.4108 30.5154 58.2188 33.0035 60.7069C35.4916 63.195 37.2996 66.2799 38.2544 69.6666L40.4035 77.1871C40.4855 77.4759 40.6594 77.73 40.8989 77.911C41.1383 78.092 41.4303 78.1899 41.7305 78.1899C42.0306 78.1899 42.3226 78.092 42.5621 77.911C42.8016 77.73 42.9755 77.4759 43.0575 77.1871L45.2066 69.6666C46.1614 66.2799 47.9693 63.195 50.4574 60.7069C52.9455 58.2188 56.0305 56.4108 59.4172 55.456L66.9377 53.3069C67.2265 53.225 67.4806 53.051 67.6616 52.8116C67.8425 52.5721 67.9405 52.2801 67.9405 51.9799C67.9405 51.6798 67.8425 51.3878 67.6616 51.1483C67.4806 50.9088 67.2265 50.7349 66.9377 50.6529Z" fill="white"/>
<path d="M80.3319 29.4666L76.6214 28.4039C74.9504 27.9318 73.4283 27.0379 72.2006 25.8076C70.973 24.5773 70.081 23.0519 69.6099 21.3773L68.5495 17.6587C68.4962 17.5286 68.4055 17.4173 68.2889 17.339C68.1723 17.2607 68.0351 17.2188 67.8948 17.2188C67.7544 17.2188 67.6173 17.2607 67.5007 17.339C67.3841 17.4173 67.2934 17.5286 67.2401 17.6587L66.1797 21.3773C65.7086 23.0519 64.8166 24.5773 63.589 25.8076C62.3613 27.0379 60.8392 27.9318 59.1682 28.4039L55.4576 29.4666C55.3152 29.5071 55.1898 29.5931 55.1005 29.7115C55.0112 29.8299 54.9629 29.9743 54.9629 30.1227C54.9629 30.2712 55.0112 30.4155 55.1005 30.534C55.1898 30.6524 55.3152 30.7384 55.4576 30.7789L59.1682 31.8416C60.8392 32.3137 62.3613 33.2076 63.589 34.4379C64.8166 35.6682 65.7086 37.1936 66.1797 38.8682L67.2401 42.5868C67.2805 42.7296 67.3663 42.8553 67.4845 42.9448C67.6026 43.0342 67.7467 43.0827 67.8948 43.0827C68.0429 43.0827 68.187 43.0342 68.3051 42.9448C68.4233 42.8553 68.5091 42.7296 68.5495 42.5868L69.6099 38.8682C70.081 37.1936 70.973 35.6682 72.2006 34.4379C73.4283 33.2076 74.9504 32.3137 76.6214 31.8416L80.3319 30.7789C80.4744 30.7384 80.5998 30.6524 80.6891 30.534C80.7784 30.4155 80.8267 30.2712 80.8267 30.1227C80.8267 29.9743 80.7784 29.8299 80.6891 29.7115C80.5998 29.5931 80.4744 29.5071 80.3319 29.4666Z" fill="white"/>
</svg>
