<svg width="72" height="71" viewBox="0 0 72 71" fill="none" xmlns="http://www.w3.org/2000/svg">
<path d="M3.81982 28.5013C10.2114 17.3591 22.2296 9.86316 36 9.86316C49.758 9.86316 61.7762 17.3591 68.1802 28.5013" stroke="#1E1E1E" stroke-opacity="0.2" stroke-width="6" stroke-miterlimit="10" stroke-linecap="round" stroke-linejoin="round"/>
<path d="M12.167 40.3159C16.899 32.0611 25.8016 26.5147 35.9998 26.5147C46.1857 26.5147 55.0883 32.0672 59.8326 40.3159" stroke="#1E1E1E" stroke-opacity="0.2" stroke-width="6" stroke-miterlimit="10" stroke-linecap="round" stroke-linejoin="round"/>
<path d="M20.5146 52.1305C23.5871 46.7692 29.3741 43.16 36.0001 43.16C42.62 43.16 48.4008 46.7692 51.4856 52.1305" stroke="#1E1E1E" stroke-opacity="0.2" stroke-width="6" stroke-miterlimit="10" stroke-linecap="round" stroke-linejoin="round"/>
<path d="M38.9046 67.3968C42.5184 65.7956 44.1499 61.5681 42.5488 57.9543C40.9476 54.3406 36.7201 52.709 33.1063 54.3102C29.4925 55.9113 27.861 60.1389 29.4621 63.7526C31.0633 67.3664 35.2908 68.998 38.9046 67.3968Z" fill="#1E1E1E" fill-opacity="0.81"/>
<path d="M41.7978 0.731197L40.5785 46.2194H31.6685L30.4492 0.731197H41.7978ZM36.4518 66.5718C34.5134 66.5718 32.8877 65.9153 31.5747 64.6022C30.2616 63.2891 29.6051 61.6634 29.6051 59.7251C29.6051 57.7868 30.2616 56.1611 31.5747 54.848C32.8877 53.535 34.5134 52.8784 36.4518 52.8784C38.3276 52.8784 39.922 53.535 41.235 54.848C42.5481 56.1611 43.2046 57.7868 43.2046 59.7251C43.2046 61.6634 42.5481 63.2891 41.235 64.6022C39.922 65.9153 38.3276 66.5718 36.4518 66.5718Z" fill="#515151"/>
</svg>
